<svg id="Layer_1" data-name="Layer 1" xmlns="http://www.w3.org/2000/svg" viewBox="0 0 243.02 243.02"><defs><style>.cls-1{fill:#fff;}</style></defs><path class="cls-1" d="M76.38,121c0,.12,0,.18-.13.18l-2.43-.08q-.06,2.1-.06,3.36,0,.8.06,2.37c0,1.06.06,1.85.06,2.37,0,.1-.07.15-.2.15l-.38,0a3.13,3.13,0,0,0-.39,0,3.07,3.07,0,0,0-.38,0l-.37,0c-.12,0-.18-.06-.18-.17,0-.53,0-1.31.07-2.36s.06-1.83.06-2.36c0-.82,0-1.94-.07-3.36-1.18.07-2.05.11-2.6.11,0,0-.08,0-.08-.07a1.64,1.64,0,0,1,.06-.36l.09-.36a4.63,4.63,0,0,1,.1-.66.11.11,0,0,1,.11-.09h.08c1.63.1,2.7.15,3.22.15s1.2,0,2.24-.11l.89-.06c.12,0,.19,0,.2.12a5.12,5.12,0,0,0,0,.67,1.69,1.69,0,0,0,0,.28C76.37,120.83,76.38,120.93,76.38,121Z" transform="translate(-4.73 -3)"/><path class="cls-1" d="M86.54,128a1.24,1.24,0,0,1-.06.31l-.07.32c0,.16,0,.41-.1.72a.17.17,0,0,1-.18.13l-.26,0a20.11,20.11,0,0,0-2.62-.13l-1.51,0-1.51,0c-.15,0-.23-.07-.23-.2,0-.52,0-1.29.08-2.31s.09-1.8.09-2.32,0-1.5-.08-2.92c0-.37,0-.91-.08-1.64v-.1c0-.1,0-.16.18-.16l1.44,0,1.44,0,1.38,0,1.38,0c.22,0,.33.07.35.2a10.16,10.16,0,0,1,.15,1.13.14.14,0,0,1-.16.16c-.39,0-1,0-1.77-.07s-1.38-.06-1.78-.06a1.08,1.08,0,0,0-.71.15,1.19,1.19,0,0,0-.15.75v1a3.63,3.63,0,0,0,0,.49q.06.21.36.21h.47c.89,0,1.7,0,2.42,0,.28,0,.61,0,1-.07.09,0,.14,0,.14.12s0,.38,0,.68,0,.53,0,.68-.07.12-.21.12-.26,0-.61-.05-.84,0-1.73,0-1.24,0-1.44,0a.32.32,0,0,0-.32.29,3.39,3.39,0,0,1,0,.53v1c0,.48.07.78.22.9a1.63,1.63,0,0,0,.86.14h.76c.32,0,1.22-.06,2.7-.17h.1C86.49,127.78,86.54,127.83,86.54,128Z" transform="translate(-4.73 -3)"/><path class="cls-1" d="M98,127.75a.45.45,0,0,1-.12.23,4.23,4.23,0,0,1-3.33,1.56,4.05,4.05,0,0,1-3.3-1.51,5.89,5.89,0,0,1,0-7,4.07,4.07,0,0,1,3.31-1.53,3.92,3.92,0,0,1,3.23,1.41.45.45,0,0,1,.11.24,2.56,2.56,0,0,1-.37.69c-.24.38-.39.58-.44.58s-.2-.12-.42-.34a3.29,3.29,0,0,0-.76-.62,2.56,2.56,0,0,0-1.31-.34,2.48,2.48,0,0,0-2.12,1,3.88,3.88,0,0,0-.67,2.34,4,4,0,0,0,.67,2.36,2.42,2.42,0,0,0,2.11,1.06,2.76,2.76,0,0,0,1.3-.33,4.37,4.37,0,0,0,.84-.63,2,2,0,0,1,.39-.34,3.23,3.23,0,0,1,.45.55A2.83,2.83,0,0,1,98,127.75Z" transform="translate(-4.73 -3)"/><path class="cls-1" d="M110.26,129.18c0,.1-.07.16-.21.16l-.36,0a2.85,2.85,0,0,0-.37,0,3.13,3.13,0,0,0-.39,0l-.4,0a.14.14,0,0,1-.16-.16c0-.41,0-1,0-1.86s0-1.44,0-1.85c0-.18,0-.28-.16-.31a21.5,21.5,0,0,0-2.38-.06,21.64,21.64,0,0,0-2.38.06c-.1,0-.15.13-.15.31,0,.4,0,1,0,1.82s0,1.42,0,1.82c0,.15-.06.23-.17.23l-.39,0a3.36,3.36,0,0,0-.4,0,2.93,2.93,0,0,0-.37,0l-.36,0c-.12,0-.18-.06-.18-.16,0-.5,0-1.26.08-2.27s.07-1.77.07-2.27,0-1.34-.07-2.4-.08-1.87-.08-2.4q0-.15.18-.15l.37,0a3.13,3.13,0,0,0,.39,0,3.07,3.07,0,0,0,.38,0l.39,0c.1,0,.16,0,.16.12,0,.4,0,1,0,1.78s-.06,1.39-.06,1.78a.22.22,0,0,0,.15.24,23.33,23.33,0,0,0,2.42,0,23.78,23.78,0,0,0,2.41,0q.15,0,.15-.3,0-.59,0-1.74c0-.77,0-1.36,0-1.74,0-.09,0-.14.16-.14l.38,0a3,3,0,0,0,.38,0,2.85,2.85,0,0,0,.37,0l.37,0q.18,0,.18.15c0,.53,0,1.33-.07,2.4s-.06,1.86-.06,2.4,0,1.26.07,2.27S110.26,128.68,110.26,129.18Z" transform="translate(-4.73 -3)"/><path class="cls-1" d="M127.43,121.1c0,.09-.05.13-.15.13-.35,0-.94,0-1.76-.06s-1.35,0-1.76,0h-.5l-.51,0c-.09,0-.14.18-.14.43v1.66c0,.31.07.47.2.47.45,0,1.12,0,2-.07s1.56-.06,2-.06c.09,0,.14,0,.14.11s0,.19,0,.35,0,.27,0,.34,0,.21,0,.38,0,.29,0,.38,0,.08-.14.08l-1.44,0-1.45,0c-.59,0-.93,0-1,0s-.31.1-.31.25q0,.61,0,1.86c0,.82,0,1.44,0,1.85,0,.14-.06.21-.17.21l-.41,0-.41,0a2.71,2.71,0,0,0-.36,0l-.36,0c-.11,0-.17-.05-.17-.15,0-.51,0-1.28.06-2.3s.07-1.79.07-2.29,0-2-.14-4.61v-.09c0-.1,0-.15.17-.17l.87,0c.72,0,1.39,0,2,0,.83,0,1.89-.06,3.17-.14a.25.25,0,0,1,.3.23,4,4,0,0,0,0,.56A5.73,5.73,0,0,1,127.43,121.1Z" transform="translate(-4.73 -3)"/><path class="cls-1" d="M139,119.84c0,.53,0,1.33-.06,2.39s-.07,1.86-.07,2.39c0,.18,0,.44,0,.78s0,.61,0,.78a5,5,0,0,1-.27,2,2.3,2.3,0,0,1-1.6,1.16,9.08,9.08,0,0,1-2.06.18c-1.6,0-2.65-.27-3.15-.8a3.73,3.73,0,0,1-.58-2.47v-.77c0-.36,0-.64,0-.85,0-.54,0-1.54-.07-3q0-.57-.06-1.68a1,1,0,0,0,0-.11q0-.15.18-.15h1.52c.11,0,.16,0,.16.13,0,.69,0,1.74,0,3.14s-.05,2.45-.05,3.14a2,2,0,0,0,.53,1.61,2.79,2.79,0,0,0,1.67.37,3.1,3.1,0,0,0,1.58-.3,1.58,1.58,0,0,0,.59-1.42c0-.72,0-1.81,0-3.26s0-2.54,0-3.27c0-.07.07-.12.2-.14a2.73,2.73,0,0,1,.41,0l.3,0a3,3,0,0,0,.38,0l.37,0C139,119.69,139,119.74,139,119.84Z" transform="translate(-4.73 -3)"/><path class="cls-1" d="M149.65,121q0,.18-.12.18l-2.43-.08c0,1.4-.07,2.52-.07,3.36q0,.8.06,2.37t.06,2.37c0,.1-.07.15-.2.15l-.38,0a3.62,3.62,0,0,0-.76,0l-.38,0a.15.15,0,0,1-.17-.17c0-.53,0-1.31.07-2.36s.06-1.83.06-2.36c0-.82,0-1.94-.08-3.36-1.18.07-2,.11-2.59.11-.06,0-.09,0-.09-.07a1.64,1.64,0,0,1,.06-.36l.09-.36c0-.16.05-.38.1-.66a.12.12,0,0,1,.12-.09h.08q2.43.15,3.21.15c.46,0,1.21,0,2.25-.11l.89-.06c.12,0,.18,0,.2.12a3.54,3.54,0,0,0,0,.67c0,.06,0,.15,0,.28A1.63,1.63,0,0,1,149.65,121Z" transform="translate(-4.73 -3)"/><path class="cls-1" d="M161.18,119.84c0,.53,0,1.33-.06,2.39s-.07,1.86-.07,2.39c0,.18,0,.44,0,.78v.78a5,5,0,0,1-.27,2,2.26,2.26,0,0,1-1.6,1.16,9,9,0,0,1-2.05.18c-1.61,0-2.66-.27-3.16-.8a3.79,3.79,0,0,1-.58-2.47c0-.15,0-.41,0-.77s0-.64,0-.85c0-.54,0-1.54-.07-3q0-.57-.06-1.68a.59.59,0,0,1,0-.11q0-.15.18-.15H155c.1,0,.16,0,.16.13,0,.69,0,1.74,0,3.14s0,2.45,0,3.14a2,2,0,0,0,.53,1.61,2.79,2.79,0,0,0,1.67.37,3.05,3.05,0,0,0,1.57-.3,1.56,1.56,0,0,0,.59-1.42c0-.72,0-1.81,0-3.26s0-2.54,0-3.27c0-.07.07-.12.2-.14a2.88,2.88,0,0,1,.42,0l.3,0a2.93,2.93,0,0,0,.37,0l.38,0C161.12,119.69,161.18,119.74,161.18,119.84Z" transform="translate(-4.73 -3)"/><path class="cls-1" d="M172.85,129.28s0,.06-.11.06l-.4,0a3.36,3.36,0,0,0-.4,0,3.82,3.82,0,0,0-.43,0l-.43,0a.25.25,0,0,1-.24-.17c-.15-.32-.57-1.28-1.25-2.9a.59.59,0,0,0-.5-.3h-.63a11.26,11.26,0,0,0-1.13,0c-.09,0-.14.13-.14.35s0,.8,0,1.44.05,1.12.05,1.44a.13.13,0,0,1-.14.14l-.42,0-.42,0a2.71,2.71,0,0,0-.36,0l-.35,0c-.12,0-.18-.06-.18-.16,0-.51,0-1.27.08-2.29s.07-1.79.07-2.29c0-1.45-.05-3-.16-4.64v-.11c0-.09.09-.14.29-.14l1.77,0,1.77,0a3.79,3.79,0,0,1,2.44.73,2.73,2.73,0,0,1,1,2.28,3.93,3.93,0,0,1-.27,1.61,3.16,3.16,0,0,1-1.08,1.17c-.08.06-.13.12-.13.17s.28.68.82,1.83S172.85,129.21,172.85,129.28ZM171,123.05a1.79,1.79,0,0,0-.71-1.67,4.23,4.23,0,0,0-1.91-.31c-.74,0-1.12.06-1.13.18s-.05.91-.05,2v1.31l.09,0,.41,0c.43,0,.9,0,1.4,0C170.33,124.65,171,124.11,171,123.05Z" transform="translate(-4.73 -3)"/><path class="cls-1" d="M183.11,128a1.73,1.73,0,0,1-.05.31c-.05.18-.07.28-.08.32s0,.41-.1.72a.17.17,0,0,1-.18.13l-.26,0a20,20,0,0,0-2.62-.13l-1.51,0-1.51,0c-.15,0-.23-.07-.23-.2q0-.78.09-2.31c.05-1,.08-1.8.08-2.32s0-1.5-.08-2.92c0-.37,0-.91-.08-1.64v-.1c0-.1,0-.16.18-.16l1.44,0,1.44,0,1.38,0,1.38,0c.22,0,.33.07.35.2a10.16,10.16,0,0,1,.15,1.13c0,.11-.05.16-.15.16-.39,0-1,0-1.77-.07s-1.39-.06-1.79-.06a1.1,1.1,0,0,0-.71.15,1.19,1.19,0,0,0-.15.75v1a3.63,3.63,0,0,0,0,.49q.06.21.36.21h.47c.9,0,1.7,0,2.42,0,.28,0,.61,0,1-.07.09,0,.14,0,.14.12s0,.38,0,.68-.05.53-.05.68-.07.12-.21.12-.26,0-.61-.05-.83,0-1.73,0-1.24,0-1.44,0a.32.32,0,0,0-.32.29,3.39,3.39,0,0,1,0,.53v1c0,.48.07.78.22.9a1.66,1.66,0,0,0,.86.14h.76c.32,0,1.22-.06,2.7-.17h.1C183.06,127.78,183.11,127.83,183.11,128Z" transform="translate(-4.73 -3)"/><path class="cls-1" d="M81.76,76.05a85.76,85.76,0,0,0-36.25-8A85.33,85.33,0,0,1,40.32,38.6a85.21,85.21,0,0,1,36.23,8A86.28,86.28,0,0,0,81.76,76.05Z" transform="translate(-4.73 -3)"/><path class="cls-1" d="M146.19,34.27A85.5,85.5,0,0,0,129,58.79a85.8,85.8,0,0,0-20-31.31A86.54,86.54,0,0,1,126.23,3,85.21,85.21,0,0,1,146.19,34.27Z" transform="translate(-4.73 -3)"/><path class="cls-1" d="M212.15,38.6a85.18,85.18,0,0,1-8,36.22A86.56,86.56,0,0,0,174.69,80a85.7,85.7,0,0,0,8.05-36.25A85.48,85.48,0,0,1,212.15,38.6Z" transform="translate(-4.73 -3)"/><path class="cls-1" d="M247.74,124.51a85.26,85.26,0,0,1-31.27,20,85.62,85.62,0,0,0-24.54-17.16,85.93,85.93,0,0,0,31.33-20A86.4,86.4,0,0,1,247.74,124.51Z" transform="translate(-4.73 -3)"/><path class="cls-1" d="M212.15,210.42a85.07,85.07,0,0,1-36.23-8A86.36,86.36,0,0,0,170.71,173,85.73,85.73,0,0,0,207,181,85.48,85.48,0,0,1,212.15,210.42Z" transform="translate(-4.73 -3)"/><path class="cls-1" d="M143.42,221.53A86.48,86.48,0,0,1,126.23,246a85.51,85.51,0,0,1-20-31.28,85.49,85.49,0,0,0,17.16-24.54A85.66,85.66,0,0,0,143.42,221.53Z" transform="translate(-4.73 -3)"/><path class="cls-1" d="M77.78,169a85.78,85.78,0,0,0-8,36.26,85.48,85.48,0,0,1-29.41,5.18,85.25,85.25,0,0,1,8-36.23A86.32,86.32,0,0,0,77.78,169Z" transform="translate(-4.73 -3)"/><path class="cls-1" d="M60.54,121.7a86,86,0,0,0-31.33,20A86.4,86.4,0,0,1,4.73,124.51a85.13,85.13,0,0,1,31.27-20A85.59,85.59,0,0,0,60.54,121.7Z" transform="translate(-4.73 -3)"/></svg>